# xmcd CD database file
#
# Track frame offsets:
#	150
#	34374
#	72753
#	121914
#	182609
#
# Disc length: 2923 seconds
#
# Revision: 1
# Processed by: cddbd v1.5.2PL0 Copyright (c) Steve Scherf et al.
# Submitted via: CDex 1.51
#
DISCID=3e0b6905
DTITLE=Esbjörn Svensson Trio - Live In Berlin
DYEAR=2005
DGENRE=Jazz
TTITLE0=A Picture Of Doris Travelling With Boris
TTITLE1=In The Tail Of Her Eye
TTITLE2=The Unstable Table and The Infamous Fable
TTITLE3=The Rube Thing
TTITLE4=All The Beauty She Left Behind
EXTD=YEAR: 2005
EXTT0=
EXTT1=
EXTT2=
EXTT3=
EXTT4=
PLAYORDER=
